<svg xmlns="http://www.w3.org/2000/svg" xmlns:xlink="http://www.w3.org/1999/xlink"><defs><symbol viewBox="0 0 24 24" id="PrologueUniComponent-airplane"><g clip-path="url(#PrologueUniComponent-airplane_clip0)"><path d="M20.305 3.134a.754.754 0 0 0-.801-.036l-15.751 9a.75.75 0 0 0 .135 1.363l5.151 1.717.338 5.121a.749.749 0 0 0 1.36.384l2.83-3.996 3.822 1.274a.739.739 0 0 0 .624-.07.746.746 0 0 0 .353-.518l2.25-13.5a.749.749 0 0 0-.311-.739zM9.489 13.747L5.954 12.57l9.974-5.7-6.44 6.878zm1.246 4.345l-.158-2.401 1.504.501-1.346 1.9zm6.296-1.83l-5.976-1.993 7.674-8.196-1.698 10.188z" /></g><defs><clipPath id="PrologueUniComponent-airplane_clip0"><path fill="#fff" transform="translate(3 3)" d="M0 0h18v18H0z" /></clipPath></defs></symbol><symbol viewBox="0 0 21 21" class="mdl-js" id="PrologueUniComponent-arrow-down"><g data-name="Group 1"><path data-name="Rectangle 1" fill="none" class="cls-1" d="M0 0h21v21H0z" /><path d="M9.51 15.603l-8.6-8.3a1.318 1.318 0 0 1 0-1.911 1.437 1.437 0 0 1 1.981 0l7.609 7.345 7.609-7.34a1.437 1.437 0 0 1 1.981 0 1.318 1.318 0 0 1 0 1.911l-8.6 8.3a1.436 1.436 0 0 1-1.98 0z" /></g></symbol><symbol viewBox="0 0 24 24" id="PrologueUniComponent-arrow-top"><path d="M12 10.962L7.463 15.5a.857.857 0 1 1-1.212-1.212l5.143-5.143a.857.857 0 0 1 1.212 0l5.143 5.143a.857.857 0 1 1-1.212 1.212L12 10.962z" /></symbol><symbol viewBox="0 0 24 24" id="PrologueUniComponent-burger"><rect x="5" y="6" width="14" height="2" rx="1" /><rect x="5" y="11" width="14" height="2" rx="1" /><rect x="5" y="16" width="14" height="2" rx="1" /></symbol><symbol viewBox="0 0 24 24" id="PrologueUniComponent-cart"><g clip-path="url(#PrologueUniComponent-cart_clip0)"><path d="M20.26 6.754H6.188l-.21-2.33a.74.74 0 0 0-.736-.674H3.74a.74.74 0 1 0 0 1.478h.826l.85 9.473c.06.682.43 1.423 1.065 1.927-1.145 1.463-.099 3.62 1.765 3.62 1.547 0 2.638-1.543 2.107-3.004h4.046c-.53 1.46.56 3.004 2.108 3.004a2.244 2.244 0 0 0 2.24-2.241 2.244 2.244 0 0 0-2.24-2.242H8.25c-.562 0-1.05-.338-1.262-.832l11.814-.694a.74.74 0 0 0 .674-.559l1.502-6.008a.74.74 0 0 0-.718-.918zM8.245 18.769a.764.764 0 0 1 0-1.525.764.764 0 0 1 0 1.525zm8.26 0a.764.764 0 0 1 0-1.525.764.764 0 0 1 0 1.525zm1.668-5.974l-11.384.669-.47-5.232h12.995l-1.141 4.563z" /></g><defs><clipPath id="PrologueUniComponent-cart_clip0"><path fill="#fff" transform="translate(3 3)" d="M0 0h18v18H0z" /></clipPath></defs></symbol><symbol viewBox="0 0 24 24" id="PrologueUniComponent-close"><rect x="6.344" y="16.242" width="14" height="2" rx="1" transform="rotate(-45 6.344 16.242)" /><rect x="7.758" y="6.344" width="14" height="2" rx="1" transform="rotate(45 7.758 6.344)" /></symbol><symbol viewBox="0 0 24 24" id="PrologueUniComponent-cloud"><path fill-rule="evenodd" clip-rule="evenodd" d="M20 14.002a3.999 3.999 0 0 0-3.999-3.998h-.347a5.999 5.999 0 1 0-5.65 7.998H16a3.999 3.999 0 0 0 3.999-4zm-4.839-2.665h.84a2.666 2.666 0 0 1 0 5.332h-5.998a4.666 4.666 0 1 1 4.513-5.832c.076.294.341.5.645.5z" /></symbol><symbol viewBox="0 0 24 24" id="PrologueUniComponent-cpu"><path fill-rule="evenodd" clip-rule="evenodd" d="M10 9.333h4c.368 0 .667.299.667.667v4a.667.667 0 0 1-.667.667h-4A.667.667 0 0 1 9.333 14v-4c0-.368.299-.667.667-.667zm3.333 4h-2.666v-2.666h2.666v2.666z" /><path fill-rule="evenodd" clip-rule="evenodd" d="M9.333 4.667V6H8a2 2 0 0 0-2 2v1.333H4.667a.667.667 0 0 0 0 1.334H6v2H4.667a.667.667 0 1 0 0 1.333H6v2a2 2 0 0 0 2 2h1.333v1.333a.667.667 0 1 0 1.334 0V18h2.666v1.333a.667.667 0 0 0 1.334 0V18H16a2 2 0 0 0 2-2v-2h1.333a.667.667 0 0 0 0-1.333H18v-2h1.333a.667.667 0 0 0 0-1.334H18V8a2 2 0 0 0-2-2h-1.333V4.667a.667.667 0 0 0-1.334 0V6h-2.666V4.667a.667.667 0 0 0-1.334 0zM16.667 8A.667.667 0 0 0 16 7.333H8A.667.667 0 0 0 7.333 8v8c0 .368.299.667.667.667h8a.667.667 0 0 0 .667-.667V8z" /></symbol><symbol viewBox="0 0 12 10" id="PrologueUniComponent-email"><path fill-rule="evenodd" clip-rule="evenodd" d="M2.123.332H9.88a1.457 1.457 0 0 1 1.455 1.463v5.81c0 .8-.654 1.454-1.455 1.454H2.122A1.457 1.457 0 0 1 .669 7.605V1.787c0-.802.653-1.455 1.454-1.455zm8.19 1.238a.488.488 0 0 0-.433-.268H2.122a.488.488 0 0 0-.433.268L6.001 4.59l4.312-3.019zM1.638 2.718l4.085 2.86c.167.117.39.117.556 0l4.086-2.86v4.887c0 .265-.22.485-.485.485H2.122a.488.488 0 0 1-.484-.485V2.718z" /></symbol><symbol viewBox="0 0 17 16" id="PrologueUniComponent-exit"><path d="M14.4 7.24H5.585a.76.76 0 0 0 0 1.521H14.4l-.983.983a.76.76 0 1 0 1.075 1.076l2.282-2.282a.734.734 0 0 0 .05-.055l.011-.015a.753.753 0 0 0 .034-.045l.008-.014a.727.727 0 0 0 .03-.05l.005-.01a.767.767 0 0 0 .027-.057l.003-.007a.742.742 0 0 0 .022-.063l.002-.008a.751.751 0 0 0 .016-.064c.002-.006.002-.013.003-.02l.008-.054a.737.737 0 0 0 0-.152l-.008-.054-.003-.02a.806.806 0 0 0-.016-.064l-.002-.007a.768.768 0 0 0-.023-.063l-.002-.007a.728.728 0 0 0-.027-.058l-.005-.01a.752.752 0 0 0-.03-.05l-.008-.014a.807.807 0 0 0-.034-.045l-.01-.014a.788.788 0 0 0-.05-.056L14.49 5.181a.758.758 0 0 0-1.075 0 .76.76 0 0 0 0 1.075l.983.984z" /><path d="M1.883 2.667c0-.491.398-.89.89-.89h5.332c.491 0 .89.399.89.89a.889.889 0 1 0 1.777 0A2.667 2.667 0 0 0 8.105 0H2.772A2.667 2.667 0 0 0 .105 2.667v10.666A2.667 2.667 0 0 0 2.772 16h5.333a2.667 2.667 0 0 0 2.667-2.667.889.889 0 1 0-1.778 0 .889.889 0 0 1-.889.89H2.772a.889.889 0 0 1-.889-.89V2.667z" /></symbol><symbol viewBox="0 0 24 24" id="PrologueUniComponent-eye"><g clip-path="url(#PrologueUniComponent-eye_clip0)" fill-rule="evenodd" clip-rule="evenodd"><path d="M8.251 12.002a3.749 3.749 0 1 1 7.498 0 3.749 3.749 0 0 1-7.498 0zm1.5 0a2.25 2.25 0 1 0 4.498 0 2.25 2.25 0 0 0-4.498 0z" /><path d="M20.893 11.617l.007.01a.75.75 0 0 1-.007.76C20.687 12.733 17.547 18 12 18c-5.547 0-8.687-5.267-8.893-5.613a.75.75 0 0 1 0-.77C3.313 11.27 6.453 6.003 12 6.003c5.547 0 8.687 5.267 8.893 5.613zm-16.248.385C5.417 13.142 8.041 16.5 12 16.5c3.974 0 6.583-3.358 7.355-4.498-.772-1.14-3.389-4.499-7.355-4.499-3.966 0-6.605 3.36-7.355 4.499z" /></g><defs><clipPath id="PrologueUniComponent-eye_clip0"><path fill="#fff" transform="translate(3 3)" d="M0 0h18v18H0z" /></clipPath></defs></symbol><symbol viewBox="0 0 18 18" id="PrologueUniComponent-gear"><path fill-rule="evenodd" clip-rule="evenodd" d="M15.623 6.75a.486.486 0 0 1-.399-.214.744.744 0 0 0-.048-.149.488.488 0 0 1 .098-.538l.039-.039a2.25 2.25 0 1 0-3.184-3.183l-.044.045a.485.485 0 0 1-.532.092.49.49 0 0 1-.303-.45V2.25a2.25 2.25 0 0 0-4.5 0v.127c0 .16-.082.31-.214.399a.75.75 0 0 0-.149.048.487.487 0 0 1-.538-.098l-.039-.039a2.25 2.25 0 1 0-3.183 3.184l.045.044c.134.137.172.35.092.532a.524.524 0 0 1-.514.363 2.25 2.25 0 0 0 0 4.5h.127c.192 0 .367.117.444.295a.49.49 0 0 1-.095.546l-.039.039a2.25 2.25 0 1 0 3.184 3.183l.044-.045a.485.485 0 0 1 .532-.092.524.524 0 0 1 .363.514 2.25 2.25 0 0 0 4.5 0v-.127c0-.192.117-.367.295-.444a.49.49 0 0 1 .546.095l.039.039a2.25 2.25 0 1 0 3.183-3.184l-.045-.044a.488.488 0 0 1-.089-.54.488.488 0 0 1 .446-.295h.065a2.25 2.25 0 0 0 0-4.5h-.127zM4.795 3.793c.548.537 1.344.71 2.052.46a.75.75 0 0 0 .198-.054A1.988 1.988 0 0 0 8.25 2.38v-.13a.75.75 0 0 1 1.5 0v.067c.003.796.476 1.51 1.205 1.822a1.985 1.985 0 0 0 2.184-.4l.051-.051a.75.75 0 1 1 1.063 1.061l-.046.046a1.991 1.991 0 0 0-.46 2.052.756.756 0 0 0 .054.198A1.988 1.988 0 0 0 15.62 8.25h.13a.75.75 0 0 1 0 1.5h-.068a1.985 1.985 0 0 0-1.818 1.197 1.987 1.987 0 0 0 .397 2.192l.051.051a.75.75 0 1 1-1.061 1.063l-.046-.046a1.99 1.99 0 0 0-2.198-.403A1.984 1.984 0 0 0 9.81 15.62v.13a.75.75 0 0 1-1.5 0v-.068a1.993 1.993 0 0 0-1.301-1.836c-.7-.31-1.568-.153-2.148.415l-.051.051a.75.75 0 1 1-1.062-1.061l.045-.046a1.99 1.99 0 0 0 .403-2.198A1.985 1.985 0 0 0 2.38 9.81h-.13a.75.75 0 0 1 0-1.5h.067a1.993 1.993 0 0 0 1.837-1.301c.31-.7.153-1.568-.415-2.148l-.051-.051a.75.75 0 1 1 1.061-1.062l.046.045zM9 12a3 3 0 1 1 0-6 3 3 0 0 1 0 6zm1.5-3a1.5 1.5 0 1 1-3 0 1.5 1.5 0 0 1 3 0z" /></symbol><symbol viewBox="0 0 12 12" id="PrologueUniComponent-key"><path d="M9.911 2.063c.68.677 1.089 1.495 1.311 2.061a1.66 1.66 0 0 1-.374 1.786L9.19 7.558a1.67 1.67 0 0 1-1.825.358 6.247 6.247 0 0 1-.866-.442.417.417 0 0 1 .436-.71c.237.145.49.274.75.382a.84.84 0 0 0 .917-.179L10.26 5.32a.828.828 0 0 0 .186-.89c-.193-.492-.545-1.2-1.123-1.775-.574-.572-1.272-.912-1.756-1.097a.84.84 0 0 0-.891.189L5.039 3.374a.83.83 0 0 0-.174.92c.117.264.25.518.394.756.1.164.074.375-.062.51L1.502 9.258V10.5h1v-.75c0-.23.186-.417.417-.417h.75v-.75c0-.23.186-.417.417-.417h1.166a.417.417 0 1 1 0 .834h-.75v.75c0 .23-.186.417-.416.417h-.75v.75c0 .23-.187.417-.417.417H1.085a.417.417 0 0 1-.417-.417V9.084c0-.11.044-.216.122-.295l3.592-3.592a7.702 7.702 0 0 1-.279-.564 1.668 1.668 0 0 1 .348-1.85l1.637-1.628A1.675 1.675 0 0 1 7.865.778c.56.214 1.368.61 2.046 1.285z" /><path d="M8.92 3.585a.667.667 0 1 1-1.334 0 .667.667 0 0 1 1.334 0z" /></symbol><symbol viewBox="0 0 20 20" id="PrologueUniComponent-lines"><path fill-rule="evenodd" clip-rule="evenodd" d="M10.237 10.283a2.854 2.854 0 0 1-2.794 2.287 2.855 2.855 0 0 1-2.794-2.287H.565a.559.559 0 0 1-.56-.562c0-.311.249-.56.56-.56H4.65a2.855 2.855 0 0 1 2.794-2.288c1.38 0 2.532.986 2.794 2.287h9.173c.311 0 .56.25.56.561 0 .312-.249.562-.56.562h-9.173zm4.707-6.873a2.85 2.85 0 0 1-2.79 2.286A2.855 2.855 0 0 1 9.36 3.41H.565a.559.559 0 0 1-.56-.562c0-.312.249-.561.56-.561h8.79A2.855 2.855 0 0 1 12.15 0c1.38 0 2.532.985 2.794 2.287h4.466c.311 0 .56.25.56.561 0 .312-.249.562-.56.562h-4.466zm0 13.704a2.846 2.846 0 0 1-2.79 2.287 2.855 2.855 0 0 1-2.794-2.287H.56A.559.559 0 0 1 0 16.553c0-.312.25-.561.561-.561h8.795a2.855 2.855 0 0 1 2.794-2.287c1.38 0 2.532.985 2.794 2.287h4.466c.311 0 .56.25.56.561 0 .312-.249.561-.56.561h-4.466z" /></symbol><symbol viewBox="0 0 19 18" id="PrologueUniComponent-message"><path d="M10.26 3.442H4.968a.794.794 0 1 0 0 1.588h5.294a.794.794 0 0 0 0-1.588zM4.967 6.619h5.294a.794.794 0 1 1 0 1.588H4.967a.794.794 0 0 1 0-1.588z" /><path fill-rule="evenodd" clip-rule="evenodd" d="M18.202 3.971h-3.97V1.06a.794.794 0 0 0-.795-.794H1.79a.794.794 0 0 0-.794.794v9.335c0 .439.356.794.794.794h1.112v2.047a.794.794 0 0 0 1.25.65L5.76 12.76v1.34c0 .44.355.795.794.795h5.432l3.854 2.698a.794.794 0 0 0 1.25-.65v-2.048h1.111a.794.794 0 0 0 .794-.794V4.766a.794.794 0 0 0-.794-.795zM4.49 11.711v-1.316a.794.794 0 0 0-.794-.794H2.584V1.854h10.06V9.6h-4.89a.795.795 0 0 0-.455.143L4.49 11.711zm12.918 1.596h-1.112a.794.794 0 0 0-.794.794v1.316l-2.81-1.967a.793.793 0 0 0-.455-.143H7.35v-1.659l.656-.459h5.432a.794.794 0 0 0 .794-.794V5.56h3.177v7.747z" /></symbol><symbol viewBox="0 0 24 24" id="PrologueUniComponent-money"><g clip-path="url(#PrologueUniComponent-money_clip0)"><g clip-path="url(#PrologueUniComponent-money_clip1)"><path d="M233.8-155.734h-443.733c-9.426 0-17.067 7.641-17.067 17.066v307.2c0 9.426 7.641 17.067 17.067 17.067H233.8c9.426 0 17.067-7.641 17.067-17.067v-307.2c0-9.425-7.641-17.066-17.067-17.066zm-426.667 34.133h48.777a68.268 68.268 0 0 1-48.777 48.777v-48.777zm0 273.067v-48.777a68.269 68.269 0 0 1 48.777 48.776h-48.777v.001zm409.6 0h-48.777a68.265 68.265 0 0 1 48.777-48.776v48.776zm0-83.798c-42.88 7.328-76.469 40.917-83.797 83.797h-242.005c-7.328-42.88-40.917-76.47-83.797-83.797V-37.804c42.88-7.33 76.469-40.917 83.797-83.797h242.005c7.328 42.88 40.917 76.469 83.797 83.797V67.668zm0-140.492a68.268 68.268 0 0 1-48.777-48.777h48.777v48.777z" /><path d="M11.935-70.398c-47.128 0-85.333 38.205-85.333 85.333s38.205 85.333 85.333 85.333 85.332-38.205 85.332-85.333C97.212-32.17 59.04-70.342 11.936-70.398zm0 136.533c-28.277 0-51.2-22.923-51.2-51.2 0-28.277 22.923-51.2 51.2-51.2 28.277 0 51.2 22.923 51.2 51.2 0 28.277-22.923 51.2-51.2 51.2z" /><path d="M20.357 5.57H3.643A.643.643 0 0 0 3 6.213v11.572c0 .355.288.642.643.642h16.714a.643.643 0 0 0 .643-.642V6.213a.643.643 0 0 0-.643-.643zM4.286 6.856h1.837a2.571 2.571 0 0 1-1.837 1.837V6.856zm0 10.286v-1.838c.9.236 1.602.938 1.837 1.838H4.286zm15.428 0h-1.837c.235-.9.938-1.602 1.837-1.837v1.837zm0-3.157a3.862 3.862 0 0 0-3.156 3.157H7.442a3.862 3.862 0 0 0-3.156-3.157v-3.973a3.862 3.862 0 0 0 3.156-3.156h9.116a3.862 3.862 0 0 0 3.156 3.156v3.973zm0-5.292a2.571 2.571 0 0 1-1.837-1.837h1.837v1.837z" /><path d="M12 8.785a3.214 3.214 0 1 0 0 6.428 3.214 3.214 0 0 0 0-6.428zm0 5.142a1.929 1.929 0 1 1 0-3.857 1.929 1.929 0 0 1 0 3.857z" /></g></g><defs><clipPath id="PrologueUniComponent-money_clip0"><path fill="#fff" d="M0 0h24v24H0z" /></clipPath><clipPath id="PrologueUniComponent-money_clip1"><path fill="#fff" transform="translate(-227 -224)" d="M0 0h477.867v477.867H0z" /></clipPath></defs></symbol><symbol viewBox="0 0 24 24" id="PrologueUniComponent-paper"><path d="M15.34 8.47h-4.47a.713.713 0 1 0 0 1.427h4.47a.713.713 0 1 0 0-1.427zM17.053 11.918H10.87a.713.713 0 1 0 0 1.427h6.183a.713.713 0 1 0 0-1.427z" /><path d="M20.287 4H7.66a.713.713 0 0 0-.713.713v6.73h-1.26A2.69 2.69 0 0 0 3 14.13v3.97a2.69 2.69 0 0 0 3.044 2.663h11.77A3.19 3.19 0 0 0 21 17.578V4.713A.713.713 0 0 0 20.287 4zM6.947 18.1c0 .612-.438 1.123-1.016 1.237h-.244v.024c-.695 0-1.26-.566-1.26-1.26V14.13c0-.695.565-1.26 1.26-1.26h1.26v5.23zm12.626-.523c0 .954-.805 1.76-1.76 1.76h-9.74c.192-.37.3-.791.3-1.237V5.427h11.2v12.15z" /><path d="M15.34 15.152h-4.47a.713.713 0 1 0 0 1.427h4.47a.713.713 0 1 0 0-1.427z" /></symbol><symbol viewBox="0 0 12 12" id="PrologueUniComponent-phone"><path fill-rule="evenodd" clip-rule="evenodd" d="M10.86 10.951c.304-.278.476-.67.474-1.081V8.418a1.46 1.46 0 0 0-1.257-1.475A5.788 5.788 0 0 1 8.81 6.63a1.463 1.463 0 0 0-1.541.328l-.352.351a7.303 7.303 0 0 1-2.234-2.23l.349-.35a1.459 1.459 0 0 0 .33-1.541 5.748 5.748 0 0 1-.313-1.26A1.462 1.462 0 0 0 3.586.669H2.13a1.463 1.463 0 0 0-1.455 1.59 10.11 10.11 0 0 0 1.572 4.44 9.976 9.976 0 0 0 3.072 3.064 10.138 10.138 0 0 0 4.414 1.566c.419.038.825-.099 1.129-.377zm-.915-3.044a.49.49 0 0 1 .415.506v1.459a.487.487 0 0 1-.531.488 9.16 9.16 0 0 1-3.985-1.417 9.013 9.013 0 0 1-2.777-2.771 9.135 9.135 0 0 1-1.423-4.008.488.488 0 0 1 .486-.523h1.46a.488.488 0 0 1 .493.418c.066.5.19.994.367 1.47a.486.486 0 0 1-.11.514l-.616.615a.486.486 0 0 0-.08.585 8.277 8.277 0 0 0 3.108 3.101c.19.108.43.076.585-.079l.619-.618a.487.487 0 0 1 .512-.107c.478.178.973.3 1.477.367z" /></symbol><symbol viewBox="0 0 32 32" id="PrologueUniComponent-plus"><path fill-rule="evenodd" clip-rule="evenodd" d="M17.263 14.737h5.474a1.263 1.263 0 1 1 0 2.526h-5.474v5.474a1.263 1.263 0 1 1-2.526 0v-5.474H9.263a1.263 1.263 0 0 1 0-2.526h5.474V9.263a1.263 1.263 0 0 1 2.526 0v5.474z" /></symbol><symbol viewBox="0 0 24 24" id="PrologueUniComponent-props"><path fill-rule="evenodd" clip-rule="evenodd" d="M17.6 19.2a.8.8 0 0 1-1.6 0v-6.5a3.201 3.201 0 0 1 0-6.2V4.8a.8.8 0 0 1 1.6 0v1.7a3.201 3.201 0 0 1 0 6.2v6.5zm-2.4-9.6a1.6 1.6 0 1 1 3.2 0 1.6 1.6 0 0 1-3.2 0zM7.398 4.8a.8.8 0 1 1 1.6 0v6.5a3.201 3.201 0 0 1 0 6.2v1.7a.8.8 0 0 1-1.6 0v-1.7a3.201 3.201 0 0 1 0-6.2V4.8zm2.4 9.6a1.6 1.6 0 1 1-3.2 0 1.6 1.6 0 0 1 3.2 0z" /></symbol><symbol viewBox="0 0 14 15" id="PrologueUniComponent-search"><path fill-rule="evenodd" clip-rule="evenodd" d="M10.336 9.729l3.451 3.63a.78.78 0 0 1-.021 1.092.755.755 0 0 1-1.08-.021L9.21 10.772a5.747 5.747 0 0 1-3.354 1.071C2.626 11.843 0 9.187 0 5.922S2.626 0 5.855 0c3.228 0 5.854 2.657 5.854 5.922 0 1.397-.486 2.74-1.373 3.807zm-.154-3.807c0-2.414-1.941-4.377-4.327-4.377-2.387 0-4.328 1.963-4.328 4.377 0 2.413 1.941 4.377 4.328 4.377 2.386 0 4.327-1.964 4.327-4.377z" /></symbol><symbol viewBox="0 0 40 40" id="PrologueUniComponent-user"><path fill-rule="evenodd" clip-rule="evenodd" d="M19.726 18.46a3.798 3.798 0 1 0 0-7.595 3.798 3.798 0 0 0 0 7.595zm0 2.532a6.33 6.33 0 1 0 0-12.658 6.33 6.33 0 0 0 0 12.658z" /><path d="M28.497 32.071c.099.692.656 1.262 1.355 1.262.7 0 1.273-.569 1.197-1.264-.629-5.697-5.459-10.128-11.323-10.128-5.865 0-10.695 4.431-11.323 10.128-.077.695.497 1.264 1.196 1.264.7 0 1.256-.57 1.355-1.262a8.863 8.863 0 0 1 17.543 0z" /></symbol><symbol viewBox="0 0 24 24" id="PrologueUniComponent-window"><g clip-path="url(#PrologueUniComponent-window_clip0)"><path d="M17.84 5H6.16C4.968 5 4 5.969 4 7.16v9.678c0 1.19.969 2.16 2.16 2.16h11.68c1.192 0 2.16-.97 2.16-2.16V7.16C20 5.97 19.032 5 17.84 5zM6.16 6.314h11.68c.467 0 .846.38.846.845v1.846H5.314V7.16c0-.466.38-.845.845-.845zm11.68 11.37H6.16a.846.846 0 0 1-.846-.846V10.32h13.372v6.52a.846.846 0 0 1-.845.844z" /><path d="M6.66 8.327a.668.668 0 1 0 0-1.335.668.668 0 0 0 0 1.335zM8.664 8.327a.668.668 0 1 0 0-1.335.668.668 0 0 0 0 1.335z" /></g><defs><clipPath id="PrologueUniComponent-window_clip0"><path fill="#fff" transform="translate(4 4)" d="M0 0h16v16H0z" /></clipPath></defs></symbol></defs></svg>