<?xml version="1.0" encoding="UTF-8"?>
<svg width="20px" height="29px" viewBox="0 0 20 29" version="1.1" xmlns="http://www.w3.org/2000/svg" xmlns:xlink="http://www.w3.org/1999/xlink">
    <!-- Generator: Sketch 52.2 (67145) - http://www.bohemiancoding.com/sketch -->
    <g id="Page-1" stroke="none" stroke-width="1" fill-rule="evenodd">
        <g id="sources" transform="translate(-380.000000, -68.000000)" fill-rule="nonzero">
            <g id="facebook-placeholder-for-locate-places-on-maps-(7)" transform="translate(380.000000, 68.000000)">
                <path d="M19.5275107,7.21782183 C19.4241705,6.8309421 19.2143178,6.4187109 19.0590713,6.05778946 C17.2013783,1.59822186 13.1423577,0 9.86490181,0 C5.47743357,0 0.645150403,2.93874865 0,8.996201 L0,10.2337711 C0,10.285418 0.0178195968,10.7493635 0.0431315241,10.9814374 C0.404788342,13.8682695 2.68522425,16.9363377 4.38834571,19.8231697 C6.22065926,22.9161174 8.12195624,25.9586992 10.0056361,29 C11.1671498,27.015303 12.3244787,25.0045128 13.459533,23.0711929 C13.7688785,22.5038188 14.1279704,21.9367817 14.4376533,21.395231 C14.6440637,21.0346467 15.0383898,20.6740624 15.2185432,20.3385599 C17.0507892,16.9876474 20,13.6108441 20,10.2853506 L20,8.91920263 C20.0000675,8.55868574 19.5526876,7.29556186 19.5275107,7.21782183 Z M9.94522499,13.4304171 C8.65553167,13.4304171 7.24386861,12.7862469 6.54708187,11.0072609 C6.44326922,10.7240795 6.45163903,10.1565705 6.45163903,10.1045865 L6.45163903,9.30547554 C6.45163903,7.0375971 8.37939542,6.00627742 10.0564625,6.00627742 C12.1211058,6.00627742 13.7179171,7.65628102 13.7179171,9.71865068 C13.7179171,11.7809529 12.0098683,13.4304171 9.94522499,13.4304171 Z" id="Facebook_Places"></path>
            </g>
        </g>
    </g>
</svg>