<svg width="64" height="64" viewBox="0 0 64 64" fill="none" xmlns="http://www.w3.org/2000/svg">
<path d="M32.0013 10.668C20.2381 10.668 10.668 20.2381 10.668 32.0013C10.668 43.7645 20.2381 53.3346 32.0013 53.3346C43.7645 53.3346 53.3346 43.7645 53.3346 32.0013C53.3346 20.2381 43.7646 10.668 32.0013 10.668ZM32.0013 49.4558C22.3769 49.4558 14.5468 41.6259 14.5468 32.0013C14.5468 22.3767 22.3769 14.5468 32.0013 14.5468C41.6257 14.5468 49.4558 22.3769 49.4558 32.0013C49.4558 41.6257 41.6257 49.4558 32.0013 49.4558Z" fill="#F2630C"/>
<path d="M32.0012 33.9178C32.0013 33.9178 32.001 33.9178 32.0012 33.9178C28.9967 33.9178 26.1717 35.0879 24.0473 37.2125C23.2899 37.9697 23.2899 39.1978 24.0473 39.9552C24.426 40.3339 24.9224 40.5233 25.4187 40.5233C25.9151 40.5233 26.4114 40.3339 26.79 39.9552C28.182 38.5632 30.0327 37.7968 32.0012 37.7968C33.9696 37.7968 35.8203 38.5633 37.2123 39.9552C37.9696 40.7125 39.1976 40.7125 39.955 39.9552C40.7124 39.1979 40.7124 37.9699 39.955 37.2125C37.8305 35.0879 35.0058 33.9178 32.0012 33.9178Z" fill="#F2630C"/>
<path d="M25.5548 29.6921C26.037 29.2112 26.3124 28.544 26.3124 27.8639C26.3124 27.1838 26.037 26.5167 25.5548 26.0356C25.0738 25.5548 24.4066 25.2781 23.7266 25.2781C23.0452 25.2781 22.3793 25.5548 21.8984 26.0356C21.4174 26.5167 21.1407 27.1838 21.1407 27.8639C21.1407 28.544 21.4174 29.2112 21.8984 29.6921C22.3793 30.1731 23.0465 30.4498 23.7266 30.4498C24.4066 30.4498 25.0738 30.1731 25.5548 29.6921Z" fill="#F2630C"/>
<path d="M40.2761 25.2781C39.5947 25.2781 38.9288 25.5548 38.4478 26.0356C37.9656 26.5167 37.6902 27.1838 37.6902 27.8639C37.6902 28.544 37.9656 29.2112 38.4478 29.6921C38.9288 30.1731 39.596 30.4498 40.2761 30.4498C40.9561 30.4498 41.6233 30.173 42.1043 29.6921C42.5865 29.2112 42.8619 28.544 42.8619 27.8639C42.8619 27.1838 42.5865 26.5167 42.1043 26.0356C41.6233 25.5548 40.9561 25.2781 40.2761 25.2781Z" fill="#F2630C"/>
</svg>
