<svg width="32" height="32" viewBox="0 0 32 32" fill="none" xmlns="http://www.w3.org/2000/svg">
<g clip-path="url(#clip0)">
<path d="M7.5 15.9983C7.5 14.4128 7.93681 12.9277 8.69569 11.656V6.26172H3.30144C1.1605 9.04222 0 12.4309 0 15.9983C0 19.5657 1.1605 22.9543 3.30144 25.7348H8.69569V20.3406C7.93681 19.0689 7.5 17.5837 7.5 15.9983Z" fill="#FBBD00"/>
<path d="M16 24.4985L12.25 28.2485L16 31.9985C19.5674 31.9985 22.9561 30.838 25.7366 28.6971V23.3086H20.3481C19.0652 24.0702 17.5738 24.4985 16 24.4985Z" fill="#0F9D58"/>
<path d="M8.69503 20.3438L3.30078 25.738C3.72466 26.2885 4.18622 26.8157 4.68566 27.3152C7.70766 30.3371 11.7256 32.0014 15.9993 32.0014V24.5014C12.8978 24.5014 10.1795 22.8314 8.69503 20.3438Z" fill="#31AA52"/>
<path d="M32 15.9993C32 15.0258 31.9119 14.0506 31.738 13.1007L31.5973 12.332H16V19.832H23.5907C22.8536 21.2983 21.7202 22.4947 20.348 23.3094L25.7365 28.6979C26.287 28.274 26.8142 27.8125 27.3137 27.313C30.3357 24.291 32 20.273 32 15.9993Z" fill="#3C79E6"/>
<path d="M22.0104 9.98956L22.6733 10.6524L27.9766 5.34919L27.3137 4.68631C24.2917 1.66431 20.2738 0 16 0L12.25 3.75L16 7.5C18.2704 7.5 20.4049 8.38412 22.0104 9.98956Z" fill="#CF2D48"/>
<path d="M16.0033 7.5V0C11.7296 0 7.71163 1.66431 4.68956 4.68625C4.19013 5.18569 3.72856 5.71287 3.30469 6.26344L8.69894 11.6577C10.1835 9.17 12.9018 7.5 16.0033 7.5Z" fill="#EB4132"/>
</g>
<defs>
<clipPath id="clip0">
<rect width="32" height="32" fill="white"/>
</clipPath>
</defs>
</svg>
