<svg width="56" height="56" viewBox="0 0 56 56" fill="none" xmlns="http://www.w3.org/2000/svg">
<path fill-rule="evenodd" clip-rule="evenodd" d="M26.3022 55.498L4.19696 42.7191C3.4757 42.3031 3.03219 41.5322 3.03468 40.6987V15.1363C3.03219 14.3028 3.4757 13.5319 4.19696 13.1159L26.3022 0.31279C27.0289 -0.104263 27.922 -0.104263 28.6487 0.31279L50.754 13.094C51.4752 13.5099 51.9188 14.2809 51.9163 15.1144V40.6767C51.9188 41.5102 51.4752 42.2812 50.754 42.6971L28.6487 55.4783C27.9286 55.9125 27.0296 55.92 26.3022 55.498Z" fill="url(#paint0_linear)"/>
<path opacity="0.27" fill-rule="evenodd" clip-rule="evenodd" d="M38.7886 49.6274L27.5386 46.9921L27.566 46.8745L38.816 49.5098L38.7886 49.6274Z" fill="white"/>
<path opacity="0.27" fill-rule="evenodd" clip-rule="evenodd" d="M35.7863 4.4668L36.8868 19.2318L51.9978 31.2938L51.9226 31.3883L36.7704 19.2934L35.6779 4.63537L10.1248 14.04L3.22474 40.9771L3.10791 40.9471L10.0237 13.9485L35.7863 4.4668Z" fill="white"/>
<path opacity="0.27" fill-rule="evenodd" clip-rule="evenodd" d="M6.59752 11.7471L21.0735 20.8842L28.0931 26.2421L28.02 26.3381L21.0046 20.9835L6.5332 11.8493L6.59752 11.7471Z" fill="white"/>
<path opacity="0.27" fill-rule="evenodd" clip-rule="evenodd" d="M51.9584 39.8457L51.962 39.9664L27.7655 40.6916L27.5888 55.9717L18.6245 45.2616L18.7169 45.184L27.472 55.6441L27.6462 40.5743L51.9584 39.8457Z" fill="white"/>
<path opacity="0.27" fill-rule="evenodd" clip-rule="evenodd" d="M43.0293 40.2134V47.2628H42.9087V40.2134H43.0293Z" fill="white"/>
<path opacity="0.27" fill-rule="evenodd" clip-rule="evenodd" d="M28.0506 26.3197L27.8525 40.6247L18.4707 37.9499L3 41.0573L20.9941 20.9794L21.0838 21.0601L3.33228 40.8674L18.4756 37.8257L27.7341 40.4654L27.9308 26.261L37.0101 18.9961L37.0477 19.0433L37.1058 19.027L43.0223 40.1831L47.6152 44.4736L47.5329 44.5619L42.9153 40.2483L37.0142 19.1474L28.0506 26.3197Z" fill="white"/>
<path fill-rule="evenodd" clip-rule="evenodd" d="M15.6661 27.6516C16.0657 27.6516 16.3898 27.3271 16.3898 26.9269C16.3898 26.5266 16.0657 26.2021 15.6661 26.2021C15.2664 26.2021 14.9424 26.5266 14.9424 26.9269C14.9424 27.3271 15.2664 27.6516 15.6661 27.6516Z" fill="#DD4D1B"/>
<path fill-rule="evenodd" clip-rule="evenodd" d="M14.915 26.927C14.915 26.5116 15.2513 26.1748 15.6661 26.1748C16.081 26.1748 16.4172 26.5116 16.4172 26.927C16.4172 27.3424 16.081 27.6791 15.6661 27.6791C15.2513 27.6791 14.915 27.3424 14.915 26.927ZM15.6661 26.2297C15.2816 26.2297 14.9699 26.5419 14.9699 26.927C14.9699 27.312 15.2816 27.6242 15.6661 27.6242C16.0507 27.6242 16.3624 27.312 16.3624 26.927C16.3624 26.5419 16.0507 26.2297 15.6661 26.2297Z" fill="#FFA278"/>
<path fill-rule="evenodd" clip-rule="evenodd" d="M10.1836 14.695C10.5833 14.695 10.9073 14.3706 10.9073 13.9703C10.9073 13.5701 10.5833 13.2456 10.1836 13.2456C9.78397 13.2456 9.45996 13.5701 9.45996 13.9703C9.45996 14.3706 9.78397 14.695 10.1836 14.695Z" fill="#DD4D1B"/>
<path fill-rule="evenodd" clip-rule="evenodd" d="M9.43262 13.9704C9.43262 13.555 9.76889 13.2183 10.1837 13.2183C10.5985 13.2183 10.9348 13.555 10.9348 13.9704C10.9348 14.3858 10.5985 14.7226 10.1837 14.7226C9.76889 14.7226 9.43262 14.3858 9.43262 13.9704ZM10.1837 13.2732C9.79917 13.2732 9.48744 13.5853 9.48744 13.9704C9.48744 14.3555 9.79917 14.6677 10.1837 14.6677C10.5683 14.6677 10.88 14.3555 10.88 13.9704C10.88 13.5853 10.5683 13.2732 10.1837 13.2732Z" fill="#FFA278"/>
<path fill-rule="evenodd" clip-rule="evenodd" d="M42.9906 41.5308C43.7052 41.5308 44.2845 40.9507 44.2845 40.2351C44.2845 39.5196 43.7052 38.9395 42.9906 38.9395C42.2761 38.9395 41.6968 39.5196 41.6968 40.2351C41.6968 40.9507 42.2761 41.5308 42.9906 41.5308Z" fill="#DD4D1B"/>
<path fill-rule="evenodd" clip-rule="evenodd" d="M41.6694 40.2352C41.6694 39.5045 42.261 38.9121 42.9907 38.9121C43.7204 38.9121 44.312 39.5045 44.312 40.2352C44.312 40.966 43.7204 41.5584 42.9907 41.5584C42.261 41.5584 41.6694 40.966 41.6694 40.2352ZM42.9907 38.967C42.2913 38.967 41.7243 39.5348 41.7243 40.2352C41.7243 40.9357 42.2913 41.5035 42.9907 41.5035C43.6901 41.5035 44.2572 40.9357 44.2572 40.2352C44.2572 39.5348 43.6901 38.967 42.9907 38.967Z" fill="#FFA278"/>
<path opacity="0.27" fill-rule="evenodd" clip-rule="evenodd" d="M18.5934 45.2507L8.99414 40.3351L9.04905 40.2275L18.7481 45.1943L16.7087 50.0312L16.5976 49.9843L18.5934 45.2507Z" fill="white"/>
<path opacity="0.27" fill-rule="evenodd" clip-rule="evenodd" d="M27.5801 40.6182L18.6985 45.2739L18.6426 45.1669L27.5242 40.5112L27.5801 40.6182Z" fill="white"/>
<path fill-rule="evenodd" clip-rule="evenodd" d="M21.8286 18.4941L21.8066 25.7192H21.8286C23.8209 25.7192 25.436 24.1018 25.436 22.1067C25.436 20.1115 23.8209 18.4941 21.8286 18.4941Z" fill="white"/>
<path fill-rule="evenodd" clip-rule="evenodd" d="M24.8987 44.408C24.5902 43.7306 24.3265 43.0337 24.1093 42.3217C24.0215 41.4895 24.0215 40.6504 24.1093 39.8182C24.2418 38.8921 24.4848 37.9852 24.8329 37.117C25.0552 36.7009 25.3119 36.3042 25.6005 35.9311C26.7094 34.7724 26.7102 32.9446 25.6023 31.7849C24.4945 30.6251 22.671 30.545 21.4659 31.603C20.2608 32.6611 20.1016 34.4819 21.1049 35.7335C21.3461 36.1507 21.8724 37.0292 22.0479 37.3805C22.311 37.9954 22.8154 39.1813 22.9031 39.8182C22.9908 40.6724 22.9908 41.5334 22.9031 42.3876C22.7508 43.1524 22.5306 43.902 22.2452 44.6276C22.1796 44.8066 22.0912 44.9764 21.9821 45.1327C21.6531 45.5939 21.368 46.077 21.368 46.6919C21.368 47.9412 22.3793 48.9539 23.6268 48.9539C24.8743 48.9539 25.8856 47.9412 25.8856 46.6919C25.8856 46.077 25.6005 45.5939 25.2715 45.1327C25.14 44.8911 25.0084 44.6518 24.8987 44.408Z" fill="white"/>
<path fill-rule="evenodd" clip-rule="evenodd" d="M41.8284 19.5703C41.1267 19.4605 39.3284 19.0871 38.8898 18.8895C36.653 17.9452 32.6398 15.0464 30.7539 13.4871C29.8125 12.6361 28.9735 11.678 28.2539 10.6322C27.9535 10.0596 27.6969 9.46495 27.4863 8.85342C27.0244 6.72099 24.9658 5.33237 22.8189 5.70489C20.6719 6.07741 19.1999 8.07862 19.4812 10.2424C19.7626 12.4061 21.6973 13.9631 23.8679 13.7726C24.5258 13.7946 25.9293 13.8824 26.4337 13.9703C27.3328 14.124 29.0433 14.4534 29.8328 14.8267C32.0697 15.8369 36.1925 18.626 38.0346 20.273C38.7965 21.013 39.48 21.8299 40.074 22.7107C40.1618 22.8644 40.3153 23.106 40.4469 23.3695C40.8281 24.9982 42.4397 26.0227 44.0738 25.6752C45.7078 25.3277 46.7645 23.7357 46.4519 22.0924C46.1393 20.4491 44.5721 19.3577 42.9249 19.6362C42.5083 19.6384 42.0697 19.5922 41.8284 19.5703Z" fill="white"/>
<path opacity="0.33" fill-rule="evenodd" clip-rule="evenodd" d="M25.1838 30.6825C24.8987 30.0676 24.2628 28.3766 24.197 27.9154C23.8461 25.5656 24.0215 20.8001 24.3066 18.4503C24.5115 17.2381 24.8498 16.0523 25.3154 14.9146C25.6181 14.3739 25.9551 13.8531 26.3242 13.3554C27.7959 11.8578 27.8304 9.46571 26.4025 7.92612C24.9747 6.38654 22.5899 6.24449 20.9899 7.60373C19.3899 8.96296 19.141 11.3423 20.425 13.004C20.7321 13.5531 21.4119 14.7389 21.6093 15.2001C21.9601 16.0127 22.5742 17.5719 22.6838 18.4284C23.0128 20.8001 22.8812 25.6095 22.5742 27.9813C22.3747 28.9902 22.0734 29.9761 21.675 30.924C21.5873 31.0778 21.4777 31.3193 21.3242 31.5829C20.1942 32.7397 20.1983 34.59 21.3335 35.7417C22.4687 36.8935 24.3161 36.9218 25.486 35.8054C26.6559 34.6889 26.7166 32.8397 25.6224 31.6487C25.4689 31.2754 25.2715 30.9021 25.1838 30.6825Z" fill="white"/>
<path fill-rule="evenodd" clip-rule="evenodd" d="M42.201 26.2482C44.2149 26.7687 46.2809 25.609 46.8885 23.617C47.4961 21.6251 46.4298 19.5072 44.4692 18.812C42.5086 18.1167 40.349 19.0906 39.5694 21.0216C39.4378 21.2631 36.8062 25.0623 33.0124 27.2584C28.4071 29.9376 22.4422 31.1016 22.0694 31.2992C21.108 31.7828 20.4873 32.7538 20.4514 33.8306C20.4154 34.9074 20.97 35.9178 21.897 36.4646C22.8241 37.0113 23.9754 37.007 24.8983 36.4534C24.915 36.4511 24.9304 36.4434 24.9422 36.4314C25.315 36.2118 29.3062 31.3146 33.8896 28.5695C37.508 26.3998 41.9378 26.2263 42.201 26.2482Z" fill="white"/>
<path fill-rule="evenodd" clip-rule="evenodd" d="M43.1224 24.7311C44.273 24.7311 45.2057 23.7971 45.2057 22.6449C45.2057 21.4927 44.273 20.5586 43.1224 20.5586C41.9718 20.5586 41.0391 21.4927 41.0391 22.6449C41.0391 23.7971 41.9718 24.7311 43.1224 24.7311Z" fill="url(#paint1_linear)"/>
<path fill-rule="evenodd" clip-rule="evenodd" d="M23.5828 11.4885C24.7334 11.4885 25.6662 10.5544 25.6662 9.40219C25.6662 8.24997 24.7334 7.31592 23.5828 7.31592C22.4323 7.31592 21.4995 8.24997 21.4995 9.40219C21.4995 10.5544 22.4323 11.4885 23.5828 11.4885Z" fill="url(#paint2_linear)"/>
<path fill-rule="evenodd" clip-rule="evenodd" d="M23.6049 48.0753C24.3195 48.0753 24.8988 47.4952 24.8988 46.7796C24.8988 46.064 24.3195 45.4839 23.6049 45.4839C22.8903 45.4839 22.311 46.064 22.311 46.7796C22.311 47.4952 22.8903 48.0753 23.6049 48.0753Z" fill="url(#paint3_linear)"/>
<path fill-rule="evenodd" clip-rule="evenodd" d="M23.539 35.2962C24.3747 35.2962 25.0522 34.6178 25.0522 33.7809C25.0522 32.944 24.3747 32.2656 23.539 32.2656C22.7033 32.2656 22.0259 32.944 22.0259 33.7809C22.0259 34.6178 22.7033 35.2962 23.539 35.2962Z" fill="url(#paint4_linear)"/>
<path fill-rule="evenodd" clip-rule="evenodd" d="M27.4203 41.9703C28.1349 41.9703 28.7142 41.3902 28.7142 40.6746C28.7142 39.959 28.1349 39.3789 27.4203 39.3789C26.7057 39.3789 26.1265 39.959 26.1265 40.6746C26.1265 41.3902 26.7057 41.9703 27.4203 41.9703Z" fill="#DD4D1B"/>
<path fill-rule="evenodd" clip-rule="evenodd" d="M26.0991 40.6747C26.0991 39.944 26.6907 39.3516 27.4204 39.3516C28.1501 39.3516 28.7417 39.944 28.7417 40.6747C28.7417 41.4054 28.1501 41.9978 27.4204 41.9978C26.6907 41.9978 26.0991 41.4054 26.0991 40.6747ZM27.4204 39.4065C26.721 39.4065 26.1539 39.9743 26.1539 40.6747C26.1539 41.3751 26.721 41.9429 27.4204 41.9429C28.1198 41.9429 28.6868 41.3751 28.6868 40.6747C28.6868 39.9743 28.1198 39.4065 27.4204 39.4065Z" fill="#FFA278"/>
<path fill-rule="evenodd" clip-rule="evenodd" d="M27.9249 26.5561C28.1792 26.5561 28.3854 26.3497 28.3854 26.095C28.3854 25.8403 28.1792 25.6338 27.9249 25.6338C27.6705 25.6338 27.4644 25.8403 27.4644 26.095C27.4644 26.3497 27.6705 26.5561 27.9249 26.5561Z" fill="#DD4D1B"/>
<path fill-rule="evenodd" clip-rule="evenodd" d="M27.437 26.0946C27.437 25.8247 27.6555 25.606 27.925 25.606C28.1944 25.606 28.4129 25.8247 28.4129 26.0946C28.4129 26.3644 28.1944 26.5832 27.925 26.5832C27.6555 26.5832 27.437 26.3644 27.437 26.0946ZM27.925 25.6609C27.6857 25.6609 27.4918 25.855 27.4918 26.0946C27.4918 26.3341 27.6857 26.5283 27.925 26.5283C28.1642 26.5283 28.3581 26.3341 28.3581 26.0946C28.3581 25.855 28.1642 25.6609 27.925 25.6609Z" fill="#FFA278"/>
<path fill-rule="evenodd" clip-rule="evenodd" d="M27.6619 47.9019C28.1463 47.9019 28.5391 47.5086 28.5391 47.0234C28.5391 46.5383 28.1463 46.145 27.6619 46.145C27.1774 46.145 26.7847 46.5383 26.7847 47.0234C26.7847 47.5086 27.1774 47.9019 27.6619 47.9019Z" fill="#DD4D1B"/>
<path fill-rule="evenodd" clip-rule="evenodd" d="M26.7573 47.0236C26.7573 46.5233 27.1623 46.1177 27.6619 46.1177C28.1615 46.1177 28.5665 46.5233 28.5665 47.0236C28.5665 47.5239 28.1615 47.9294 27.6619 47.9294C27.1623 47.9294 26.7573 47.5239 26.7573 47.0236ZM27.6619 46.1726C27.1926 46.1726 26.8121 46.5536 26.8121 47.0236C26.8121 47.4935 27.1926 47.8745 27.6619 47.8745C28.1312 47.8745 28.5117 47.4935 28.5117 47.0236C28.5117 46.5536 28.1312 46.1726 27.6619 46.1726Z" fill="#FFA278"/>
<path fill-rule="evenodd" clip-rule="evenodd" d="M18.6707 46.145C19.1551 46.145 19.5478 45.7518 19.5478 45.2666C19.5478 44.7815 19.1551 44.3882 18.6707 44.3882C18.1862 44.3882 17.7935 44.7815 17.7935 45.2666C17.7935 45.7518 18.1862 46.145 18.6707 46.145Z" fill="#DD4D1B"/>
<path fill-rule="evenodd" clip-rule="evenodd" d="M17.7661 45.2667C17.7661 44.7664 18.1711 44.3608 18.6707 44.3608C19.1703 44.3608 19.5753 44.7664 19.5753 45.2667C19.5753 45.767 19.1703 46.1726 18.6707 46.1726C18.1711 46.1726 17.7661 45.767 17.7661 45.2667ZM18.6707 44.4157C18.2014 44.4157 17.8209 44.7967 17.8209 45.2667C17.8209 45.7367 18.2014 46.1177 18.6707 46.1177C19.14 46.1177 19.5205 45.7367 19.5205 45.2667C19.5205 44.7967 19.14 44.4157 18.6707 44.4157Z" fill="#FFA278"/>
<path fill-rule="evenodd" clip-rule="evenodd" d="M18.4952 38.4346C18.7495 38.4346 18.9557 38.2281 18.9557 37.9734C18.9557 37.7187 18.7495 37.5122 18.4952 37.5122C18.2409 37.5122 18.0347 37.7187 18.0347 37.9734C18.0347 38.2281 18.2409 38.4346 18.4952 38.4346Z" fill="#DD4D1B"/>
<path fill-rule="evenodd" clip-rule="evenodd" d="M18.0073 37.9735C18.0073 37.7036 18.2258 37.4849 18.4953 37.4849C18.7647 37.4849 18.9832 37.7036 18.9832 37.9735C18.9832 38.2433 18.7647 38.4621 18.4953 38.4621C18.2258 38.4621 18.0073 38.2433 18.0073 37.9735ZM18.4953 37.5398C18.2561 37.5398 18.0621 37.7339 18.0621 37.9735C18.0621 38.213 18.2561 38.4072 18.4953 38.4072C18.7345 38.4072 18.9284 38.213 18.9284 37.9735C18.9284 37.7339 18.7345 37.5398 18.4953 37.5398Z" fill="#FFA278"/>
<path fill-rule="evenodd" clip-rule="evenodd" d="M9.02118 41.094C9.38452 41.094 9.67907 40.799 9.67907 40.4352C9.67907 40.0713 9.38452 39.7764 9.02118 39.7764C8.65783 39.7764 8.36328 40.0713 8.36328 40.4352C8.36328 40.799 8.65783 41.094 9.02118 41.094Z" fill="#DD4D1B"/>
<path fill-rule="evenodd" clip-rule="evenodd" d="M8.33594 40.4353C8.33594 40.0563 8.64276 39.749 9.02124 39.749C9.39973 39.749 9.70655 40.0563 9.70655 40.4353C9.70655 40.8143 9.39973 41.1216 9.02124 41.1216C8.64276 41.1216 8.33594 40.8143 8.33594 40.4353ZM9.02124 39.8039C8.67304 39.8039 8.39076 40.0866 8.39076 40.4353C8.39076 40.784 8.67304 41.0667 9.02124 41.0667C9.36945 41.0667 9.65173 40.784 9.65173 40.4353C9.65173 40.0866 9.36945 39.8039 9.02124 39.8039Z" fill="#FFA278"/>
<path opacity="0.27" fill-rule="evenodd" clip-rule="evenodd" d="M50.1012 12.7901L37.5134 19.0973L37.4595 18.9893L50.0472 12.6821L50.1012 12.7901Z" fill="white"/>
<defs>
<linearGradient id="paint0_linear" x1="25.4869" y1="68.4686" x2="67.4809" y2="35.5077" gradientUnits="userSpaceOnUse">
<stop stop-color="#BA1700"/>
<stop offset="1" stop-color="#FF730F"/>
</linearGradient>
<linearGradient id="paint1_linear" x1="41.0588" y1="24.7465" x2="45.2255" y2="24.7465" gradientUnits="userSpaceOnUse">
<stop stop-color="#D44100"/>
<stop offset="1" stop-color="#ED1E79"/>
</linearGradient>
<linearGradient id="paint2_linear" x1="21.4776" y1="11.5247" x2="25.6859" y2="11.5247" gradientUnits="userSpaceOnUse">
<stop stop-color="#D44100"/>
<stop offset="1" stop-color="#ED1E79"/>
</linearGradient>
<linearGradient id="paint3_linear" x1="22.3001" y1="48.088" x2="24.8878" y2="48.088" gradientUnits="userSpaceOnUse">
<stop stop-color="#D44100"/>
<stop offset="1" stop-color="#ED1E79"/>
</linearGradient>
<linearGradient id="paint4_linear" x1="22.039" y1="35.3024" x2="25.0654" y2="35.3024" gradientUnits="userSpaceOnUse">
<stop stop-color="#D44100"/>
<stop offset="1" stop-color="#ED1E79"/>
</linearGradient>
</defs>
</svg>
