<svg xmlns="http://www.w3.org/2000/svg" xmlns:xlink="http://www.w3.org/1999/xlink" viewBox="0 0 850.4 254.87">
  <defs>
    <style>
      .cls-1 {
        fill: url(#Безымянный_градиент);
      }

      .cls-2 {
        fill: none;
        stroke: #fff;
        stroke-width: 0.55px;
        opacity: 0.27;
      }

      .cls-2, .cls-5 {
        isolation: isolate;
      }

      .cls-3 {
        fill: #dd4d1b;
        stroke: #ffa278;
        stroke-width: 0.25px;
      }

      .cls-4, .cls-5 {
        fill: #fff;
      }

      .cls-5 {
        opacity: 0.33;
      }

      .cls-6 {
        fill: url(#Безымянный_градиент_7);
      }

      .cls-7 {
        fill: url(#Безымянный_градиент_7-2);
      }

      .cls-8 {
        fill: url(#Безымянный_градиент_7-3);
      }

      .cls-9 {
        fill: url(#Безымянный_градиент_7-4);
      }

      .cls-10 {
        fill: url(#Безымянный_градиент_7-5);
      }

      .cls-11 {
        fill: url(#Безымянный_градиент_7-6);
      }

      .cls-12 {
        fill: #333;
      }

      .cls-13 {
        fill: gray;
      }
    </style>
    <linearGradient id="Безымянный_градиент" data-name="Безымянный градиент" x1="-531.49" y1="665.56" x2="-530.72" y2="666.25" gradientTransform="matrix(222.9, 0, 0, -254.14, 118551.3, 169359.36)" gradientUnits="userSpaceOnUse">
      <stop offset="0" stop-color="#ba1700"/>
      <stop offset="1" stop-color="#ff730f"/>
    </linearGradient>
    <linearGradient id="Безымянный_градиент_7" data-name="Безымянный градиент 7" x1="-505.89" y1="645.89" x2="-504.89" y2="645.89" gradientTransform="matrix(19, 0, 0, -19, 9842, 12375.1)" gradientUnits="userSpaceOnUse">
      <stop offset="0" stop-color="#d44100"/>
      <stop offset="1" stop-color="#ed1e79"/>
    </linearGradient>
    <linearGradient id="Безымянный_градиент_7-2" x1="-505.89" y1="645.89" x2="-504.89" y2="645.89" gradientTransform="matrix(19, 0, 0, -19, 9842, 12284)" xlink:href="#Безымянный_градиент_7"/>
    <linearGradient id="Безымянный_градиент_7-3" x1="-520.52" y1="657.15" x2="-519.52" y2="657.15" gradientTransform="matrix(39.6, 0, 0, -39.6, 20612.4, 26151.71)" xlink:href="#Безымянный_градиент_7"/>
    <linearGradient id="Безымянный_градиент_7-4" x1="-505.9" y1="645.89" x2="-504.89" y2="645.89" gradientTransform="matrix(19, 0, 0, -19, 9752.9, 12314.8)" xlink:href="#Безымянный_градиент_7"/>
    <linearGradient id="Безымянный_градиент_7-5" x1="-488.75" y1="632.69" x2="-487.75" y2="632.69" gradientTransform="matrix(11.8, 0, 0, -11.8, 5911.8, 7678.82)" xlink:href="#Безымянный_градиент_7"/>
    <linearGradient id="Безымянный_градиент_7-6" x1="-495.3" y1="637.74" x2="-494.3" y2="637.74" gradientTransform="matrix(13.8, 0, 0, -13.8, 6978.5, 8954.67)" xlink:href="#Безымянный_градиент_7"/>
  </defs>
  <title>P_uni</title>
  <g id="Слой_2" data-name="Слой 2">
    <g id="Слой_1-2" data-name="Слой 1">
      <path id="Path" class="cls-1" d="M162.8,252.72,62,194.53a10.58,10.58,0,0,1-5.3-9.2V68.93a10.58,10.58,0,0,1,5.3-9.2L162.8,1.43a10.76,10.76,0,0,1,10.7,0l100.8,58.2a10.58,10.58,0,0,1,5.3,9.2v116.4a10.58,10.58,0,0,1-5.3,9.2l-100.8,58.2A10.52,10.52,0,0,1,162.8,252.72Z"/>
      <path id="Path-2" data-name="Path" class="cls-2" d="M168.5,213.72l51.3,12"/>
      <polyline id="Path-3" data-name="Path" class="cls-2" points="57.3 186.53 88.8 63.73 205.8 20.73 210.8 87.72 279.8 142.72"/>
      <polyline id="Path-4" data-name="Path" class="cls-2" points="170.8 119.72 138.8 95.33 72.8 53.73"/>
      <polyline id="Path-5" data-name="Path" class="cls-2" points="279.8 181.72 169.2 185.03 168.4 254.13 128 205.93"/>
      <path id="Path-6" data-name="Path" class="cls-2" d="M238.8,215.22v-32.1"/>
      <polyline id="Path-7" data-name="Path" class="cls-2" points="138.8 95.72 57.3 186.53 127.1 172.53 169.6 184.63 170.5 119.72 211.8 86.72 211.8 86.72 211.8 86.72 238.8 183.13 259.8 202.72"/>
      <circle id="Oval" class="cls-3" cx="114.3" cy="122.62" r="3.3"/>
      <circle id="Oval-2" data-name="Oval" class="cls-3" cx="89.3" cy="63.62" r="3.3"/>
      <circle id="Oval-3" data-name="Oval" class="cls-3" cx="238.9" cy="183.22" r="5.9"/>
      <polyline id="Path-8" data-name="Path" class="cls-2" points="84 183.43 128 205.93 118.8 227.72"/>
      <path id="Path-9" data-name="Path" class="cls-2" d="M128,205.92l40.5-21.2"/>
      <path id="Path-10" data-name="Path" class="cls-4" d="M142.4,84.22l-.1,32.9h.1a16.45,16.45,0,0,0,0-32.9Z"/>
      <path id="Path-11" data-name="Path" class="cls-4" d="M156.4,202.22a77.41,77.41,0,0,1-3.6-9.5,54.3,54.3,0,0,1,0-11.4,53.31,53.31,0,0,1,3.3-12.3,38.35,38.35,0,0,1,3.5-5.4,13.65,13.65,0,1,0-20.5-.9c1.1,1.9,3.5,5.9,4.3,7.5,1.2,2.8,3.5,8.2,3.9,11.1a57.19,57.19,0,0,1,0,11.7,59.73,59.73,0,0,1-3,10.2,10.08,10.08,0,0,1-1.2,2.3c-1.5,2.1-2.8,4.3-2.8,7.1a10.3,10.3,0,0,0,20.6,0c0-2.8-1.3-5-2.8-7.1C157.5,204.42,156.9,203.33,156.4,202.22Z"/>
      <path id="Path-12" data-name="Path" class="cls-4" d="M233.6,89.12c-3.2-.5-11.4-2.2-13.4-3.1-10.2-4.3-28.5-17.5-37.1-24.6a74.33,74.33,0,0,1-11.4-13,58.21,58.21,0,0,1-3.5-8.1,18.54,18.54,0,1,0-16.5,22.4c3,.1,9.4.5,11.7.9,4.1.7,11.9,2.2,15.5,3.9,10.2,4.6,29,17.3,37.4,24.8a70.19,70.19,0,0,1,9.3,11.1c.4.7,1.1,1.8,1.7,3a14,14,0,1,0,11.3-17C236.7,89.43,234.7,89.22,233.6,89.12Z"/>
      <path id="Path-13" data-name="Path" class="cls-5" d="M157.7,139.72c-1.3-2.8-4.2-10.5-4.5-12.6-1.6-10.7-.8-32.4.5-43.1a75.83,75.83,0,0,1,4.6-16.1,66.24,66.24,0,0,1,4.6-7.1,17.89,17.89,0,1,0-26.9-1.6c1.4,2.5,4.5,7.9,5.4,10,1.6,3.7,4.4,10.8,4.9,14.7,1.5,10.8.9,32.7-.5,43.5a69.2,69.2,0,0,1-4.1,13.4c-.4.7-.9,1.8-1.6,3a13.51,13.51,0,1,0,19.6.3C159,142.42,158.1,140.72,157.7,139.72Z"/>
      <path id="Path-14" data-name="Path" class="cls-4" d="M235.3,119.53a17.72,17.72,0,1,0-12-23.8c-.6,1.1-12.6,18.4-29.9,28.4-21,12.2-48.2,17.5-49.9,18.4A13.4,13.4,0,1,0,156.4,166a.35.35,0,0,0,.2-.1c1.7-1,19.9-23.3,40.8-35.8C213.9,120.22,234.1,119.43,235.3,119.53Z"/>
      <circle id="Oval-4" data-name="Oval" class="cls-6" cx="239.5" cy="103.12" r="9.5"/>
      <circle id="Oval-5" data-name="Oval" class="cls-7" cx="239.5" cy="12.02" r="9.5"/>
      <circle id="Oval-6" data-name="Oval" class="cls-8" cx="19.8" cy="128.72" r="19.8"/>
      <circle id="Oval-7" data-name="Oval" class="cls-9" cx="150.4" cy="42.82" r="9.5"/>
      <circle id="Oval-8" data-name="Oval" class="cls-10" cx="150.5" cy="213.02" r="5.9"/>
      <circle id="Oval-9" data-name="Oval" class="cls-11" cx="150.2" cy="153.83" r="6.9"/>
      <circle id="Oval-10" data-name="Oval" class="cls-3" cx="167.9" cy="185.22" r="5.9"/>
      <circle id="Oval-11" data-name="Oval" class="cls-3" cx="170.2" cy="118.83" r="2.1"/>
      <circle id="Oval-12" data-name="Oval" class="cls-3" cx="169" cy="214.13" r="4"/>
      <circle id="Oval-13" data-name="Oval" class="cls-3" cx="128" cy="206.13" r="4"/>
      <circle id="Oval-14" data-name="Oval" class="cls-3" cx="127.2" cy="172.92" r="2.1"/>
      <circle id="Oval-15" data-name="Oval" class="cls-3" cx="84" cy="184.13" r="3"/>
      <path id="Path-15" data-name="Path" class="cls-2" d="M213.8,86.72,271.2,58"/>
      <path id="Shape" class="cls-12" d="M305.3,177.13v-93h38.8a24.65,24.65,0,0,1,11.3,2.6,29.7,29.7,0,0,1,8.9,6.8,30.45,30.45,0,0,1,5.8,9.6,28.46,28.46,0,0,1,2.1,10.8,32.07,32.07,0,0,1-2,11.1,33.11,33.11,0,0,1-5.6,9.6,26.7,26.7,0,0,1-8.6,6.7,25.46,25.46,0,0,1-11.2,2.5H317.1v33.4Zm11.8-43.9h27.1a14.85,14.85,0,0,0,6.6-1.5,13.57,13.57,0,0,0,5-4.2,24.65,24.65,0,0,0,3.3-6.2,23.56,23.56,0,0,0,1.2-7.5,21.3,21.3,0,0,0-5-13.8,16.82,16.82,0,0,0-5.4-4.1,14.35,14.35,0,0,0-6.5-1.4H317.1Z"/>
      <path id="Path-16" data-name="Path" class="cls-12" d="M421.2,118.83a30.53,30.53,0,0,0-15.3,4.4,23.19,23.19,0,0,0-9.4,11.7v42.2H385v-68.4h10.7v15.8A33.52,33.52,0,0,1,405,113a23,23,0,0,1,12.3-4.9h2.2a8.6,8.6,0,0,1,1.6.1Z"/>
      <path id="Shape-2" data-name="Shape" class="cls-12" d="M460.9,178.42a33.86,33.86,0,0,1-25-10.6,35.7,35.7,0,0,1-7-11.3,37.28,37.28,0,0,1,.1-27.1,34.27,34.27,0,0,1,7.1-11.3,33.89,33.89,0,0,1,24.9-10.6,33.86,33.86,0,0,1,25,10.6,37.88,37.88,0,0,1,7.1,11.3,35.27,35.27,0,0,1,2.5,13.6,36.72,36.72,0,0,1-2.5,13.5,33.92,33.92,0,0,1-18,19A33.46,33.46,0,0,1,460.9,178.42Zm-22.7-35.2a28.52,28.52,0,0,0,1.8,10,25.38,25.38,0,0,0,4.9,8,23.9,23.9,0,0,0,7.2,5.4,21.06,21.06,0,0,0,17.7,0,24.33,24.33,0,0,0,7.3-5.4,25.83,25.83,0,0,0,4.9-8.1,28.52,28.52,0,0,0,1.8-10,28,28,0,0,0-1.8-9.9,25.83,25.83,0,0,0-4.9-8.1,21.72,21.72,0,0,0-7.3-5.4,20.94,20.94,0,0,0-8.8-2,20.27,20.27,0,0,0-8.8,2,22.66,22.66,0,0,0-7.2,5.5,27.85,27.85,0,0,0-4.9,8.1A25.66,25.66,0,0,0,438.2,143.22Z"/>
      <path id="Path-17" data-name="Path" class="cls-12" d="M509.7,81.52h11.5v77.9a8.73,8.73,0,0,0,2,6,7.6,7.6,0,0,0,5.7,2.2,12.7,12.7,0,0,0,3.4-.5c1.2-.3,2.5-.7,3.7-1.1l1.8,9.3a40.73,40.73,0,0,1-6.8,2,32.47,32.47,0,0,1-6.9.8c-4.5,0-8-1.3-10.5-3.8s-3.9-6.1-3.9-10.6Z"/>
      <path id="Shape-3" data-name="Shape" class="cls-12" d="M576.8,178.42a33.86,33.86,0,0,1-25-10.6,35.71,35.71,0,0,1-7-11.3,38,38,0,0,1,0-27.1,36,36,0,0,1,7.1-11.3,33.89,33.89,0,0,1,24.9-10.6,33.86,33.86,0,0,1,25,10.6,37.88,37.88,0,0,1,7.1,11.3,35.28,35.28,0,0,1,2.5,13.6,36.72,36.72,0,0,1-2.5,13.5,33.92,33.92,0,0,1-18,19A32.72,32.72,0,0,1,576.8,178.42Zm-22.7-35.2a28.52,28.52,0,0,0,1.8,10,27.05,27.05,0,0,0,4.8,8,23.9,23.9,0,0,0,7.2,5.4,21.06,21.06,0,0,0,17.7,0,24.33,24.33,0,0,0,7.3-5.4,25.83,25.83,0,0,0,4.9-8.1,28.52,28.52,0,0,0,1.8-10,28,28,0,0,0-1.8-9.9,25.83,25.83,0,0,0-4.9-8.1,21.72,21.72,0,0,0-7.3-5.4,20.94,20.94,0,0,0-8.8-2,20.27,20.27,0,0,0-8.8,2,22.66,22.66,0,0,0-7.2,5.5,28.37,28.37,0,0,0-6.7,18Z"/>
      <path id="Shape-4" data-name="Shape" class="cls-12" d="M652.6,177.92a29.94,29.94,0,0,1-12.8-2.9,32.68,32.68,0,0,1-10-7.7,37.66,37.66,0,0,1-6.5-11.1,38.84,38.84,0,0,1-2.3-13.1,39.83,39.83,0,0,1,2.3-13.7,32.89,32.89,0,0,1,16.5-19,28.57,28.57,0,0,1,12.9-2.8,26.1,26.1,0,0,1,14.9,4.2,38.2,38.2,0,0,1,10.6,10.6v-13.6h10.2v67.6a27.32,27.32,0,0,1-2.8,12.9,28.38,28.38,0,0,1-7.5,9.4,32.75,32.75,0,0,1-11.1,5.8,48,48,0,0,1-13.5,2c-7.8,0-14.1-1.3-18.9-4a34.83,34.83,0,0,1-12.1-11.1l6.7-5.9a25.49,25.49,0,0,0,10.5,9,33.1,33.1,0,0,0,13.9,3,30.62,30.62,0,0,0,9-1.3,21.08,21.08,0,0,0,7.4-3.9,19.26,19.26,0,0,0,5-6.6,21.25,21.25,0,0,0,1.9-9.3v-12a28.77,28.77,0,0,1-10.5,10,26.14,26.14,0,0,1-6.7,2.7A33.59,33.59,0,0,1,652.6,177.92Zm3.5-9.4a19.39,19.39,0,0,0,7.1-1.3,26,26,0,0,0,6.3-3.5,20.29,20.29,0,0,0,4.8-4.9,16.83,16.83,0,0,0,2.6-5.6v-19.6a25.45,25.45,0,0,0-3.7-6.4,24.67,24.67,0,0,0-5.2-5,21.81,21.81,0,0,0-6.2-3.3,20.37,20.37,0,0,0-16.1,1,23.43,23.43,0,0,0-7,5.9,29.05,29.05,0,0,0-4.5,8.3,29.92,29.92,0,0,0-1.6,9.4,26,26,0,0,0,6.8,17.6,22.47,22.47,0,0,0,16.7,7.4Z"/>
      <path id="Path-18" data-name="Path" class="cls-12" d="M728.2,178.42q-10.8,0-16.2-7.2c-3.7-4.8-5.5-12-5.5-21.5v-41H718v38.8c0,14,4.8,21,14.5,21a22,22,0,0,0,13.3-4.5,27.05,27.05,0,0,0,9.2-12.4v-42.8h11.5V163c0,2.7,1.2,4.1,3.7,4.2v10a22.41,22.41,0,0,1-3.1.3c-.7,0-1.4.1-2.2.1a8,8,0,0,1-5.7-2,6.66,6.66,0,0,1-2.4-5l-.3-8a31.88,31.88,0,0,1-12,11.9A33,33,0,0,1,728.2,178.42Z"/>
      <path id="Shape-5" data-name="Shape" class="cls-12" d="M816,178.42a33.76,33.76,0,0,1-25.1-10.5,34.27,34.27,0,0,1-7.1-11.3,35.77,35.77,0,0,1-2.5-13.7,36.87,36.87,0,0,1,2.5-13.6,34,34,0,0,1,32.4-21.7,33.26,33.26,0,0,1,31.8,21.7,37.16,37.16,0,0,1,2.4,13.2,20.92,20.92,0,0,1-.1,2.6,11,11,0,0,1-.2,1.8H793.4a25.09,25.09,0,0,0,2.4,9.3,24.2,24.2,0,0,0,5.1,7.2,23.74,23.74,0,0,0,7.1,4.7,22.23,22.23,0,0,0,8.5,1.7,21.63,21.63,0,0,0,6.2-.9,22.79,22.79,0,0,0,5.6-2.3,19.84,19.84,0,0,0,4.7-3.5,16,16,0,0,0,3.1-4.7l10,2.8a23.44,23.44,0,0,1-4.7,6.9,29.42,29.42,0,0,1-6.8,5.4,34.09,34.09,0,0,1-8.6,3.6A38.14,38.14,0,0,1,816,178.42Zm23.4-40a23.61,23.61,0,0,0-2.4-9,25.19,25.19,0,0,0-5.1-7,23.27,23.27,0,0,0-24.4-4.5,21.21,21.21,0,0,0-7.1,4.6,23,23,0,0,0-5,7,24.92,24.92,0,0,0-2.3,8.9Z"/>
      <path id="path-8-2" data-name="path-8" class="cls-13" d="M790.95,59.47V81.18q0,5.74-3.47,9T778,93.48q-6.06,0-9.37-3.3t-3.32-9.09V59.47h3.9V81.37a8.62,8.62,0,0,0,2.29,6.45q2.29,2.25,6.75,2.25a8.93,8.93,0,0,0,6.54-2.26A8.7,8.7,0,0,0,787,81.32V59.47ZM830.54,93h-4.45L807.75,64.87h-.18q.37,5,.37,9.09V93h-3.6V59.47h4.41l18.29,28h.18q0-.62-.21-4t-.11-4.81V59.47h3.65Zm13.73,0V59.47h3.9V93Z"/>
    </g>
  </g>
</svg>
