<svg width="32" height="32" viewBox="0 0 32 32" fill="none" xmlns="http://www.w3.org/2000/svg">
<g clip-path="url(#clip0)">
<path d="M15.9984 17.3171C20.7803 17.3171 24.657 13.4406 24.657 8.65852C24.657 3.8765 20.7804 0 15.9984 0C11.2163 0 7.33984 3.87656 7.33984 8.65859C7.34571 13.4381 11.2188 17.3112 15.9984 17.3171ZM15.9984 3.99626C18.5733 3.99626 20.6607 6.08362 20.6607 8.65859C20.6607 11.2336 18.5733 13.3209 15.9984 13.3209C13.4234 13.3209 11.336 11.2336 11.336 8.65859C11.336 6.08362 13.4235 3.99626 15.9984 3.99626Z" fill="#FF9800"/>
<path d="M24.48 21.4211C25.421 20.8013 25.988 19.7505 25.9893 18.6237C26.0024 17.6886 25.4747 16.8299 24.6346 16.4191C23.7714 15.988 22.7381 16.0851 21.9704 16.6696C18.4123 19.2636 13.5863 19.2636 10.0282 16.6696C9.25934 16.0881 8.22786 15.9911 7.36405 16.4191C6.52427 16.8299 5.99633 17.6876 6.008 18.6224C6.01 19.7489 6.57678 20.7995 7.51728 21.4198C8.7239 22.2222 10.0379 22.85 11.4203 23.2847C11.6548 23.3575 11.8967 23.425 12.1463 23.4872L8.12078 27.4235C7.06476 28.4481 7.03923 30.1347 8.06383 31.1908C9.08843 32.2468 10.775 32.2724 11.8311 31.2478C11.8531 31.2264 11.8747 31.2047 11.8959 31.1826L15.9988 26.9359L20.1096 31.1906C21.1334 32.2475 22.82 32.2743 23.8768 31.2506C24.9337 30.2268 24.9605 28.5402 23.9368 27.4833C23.9154 27.4612 23.8936 27.4395 23.8714 27.4182L19.8525 23.4858C20.102 23.4219 20.3449 23.354 20.5811 23.282C21.962 22.849 23.2748 22.2225 24.48 21.4211Z" fill="#FF9800"/>
</g>
<defs>
<clipPath id="clip0">
<rect width="32" height="32" fill="white"/>
</clipPath>
</defs>
</svg>
