<svg width="32" height="32" viewBox="0 0 32 32" fill="none" xmlns="http://www.w3.org/2000/svg">
<g clip-path="url(#clip0)">
<path d="M27.5406 18.4599C28.6021 19.4963 29.7224 20.4713 30.6744 21.6122C31.095 22.1192 31.4931 22.6423 31.7977 23.2307C32.2294 24.0671 31.8384 24.9874 31.0885 25.0374L26.4266 25.0353C25.2242 25.135 24.2651 24.651 23.4586 23.8289C22.8131 23.1714 22.2154 22.4717 21.5947 21.7921C21.3403 21.5144 21.074 21.253 20.7559 21.0464C20.1195 20.6333 19.5671 20.7598 19.2034 21.4235C18.833 22.0986 18.7489 22.8461 18.7126 23.5985C18.6626 24.6962 18.3308 24.9849 17.2281 25.0351C14.8716 25.1463 12.6351 24.7897 10.5574 23.6009C8.72561 22.5529 7.30524 21.0734 6.06886 19.3984C3.6618 16.137 1.81836 12.5531 0.161613 8.86888C-0.211324 8.03881 0.0614257 7.59325 0.977301 7.57744C2.49811 7.54787 4.01874 7.55 5.54136 7.57531C6.15949 7.58438 6.56868 7.93888 6.80736 8.52281C7.63018 10.546 8.63699 12.4709 9.90074 14.2551C10.2373 14.7301 10.5805 15.2051 11.0691 15.5394C11.6097 15.9096 12.0214 15.7869 12.2757 15.1847C12.4371 14.8028 12.5077 14.3915 12.5441 13.9826C12.6646 12.5755 12.6805 11.1708 12.4692 9.76869C12.3394 8.89362 11.8466 8.32713 10.9734 8.16156C10.5278 8.07713 10.5941 7.91131 10.8099 7.657C11.1846 7.21838 11.537 6.94531 12.2396 6.94531H17.5082C18.3376 7.109 18.5218 7.48163 18.6354 8.31619L18.6399 14.1685C18.6308 14.4916 18.8012 15.4504 19.3832 15.6642C19.8489 15.8164 20.1559 15.4438 20.4354 15.1485C21.6969 13.8097 22.5972 12.2274 23.4015 10.5891C23.7584 9.86863 24.0654 9.1205 24.3628 8.37294C24.5832 7.81825 24.929 7.54531 25.5538 7.55737L30.6246 7.56187C30.7749 7.56187 30.9271 7.56406 31.0727 7.589C31.9271 7.73463 32.1613 8.10219 31.8974 8.93656C31.4816 10.2456 30.6725 11.3366 29.8814 12.4325C29.0358 13.6026 28.1314 14.7326 27.2928 15.9096C26.5223 16.9846 26.5835 17.5264 27.5406 18.4599Z" fill="#436EAB"/>
</g>
<defs>
<clipPath id="clip0">
<rect width="32" height="32" fill="white"/>
</clipPath>
</defs>
</svg>
