<svg width="32" height="32" viewBox="0 0 32 32" fill="none" xmlns="http://www.w3.org/2000/svg">
<path d="M22.7192 0H18.1727C13.5665 0 8.91864 3.40137 8.91864 11.0004C8.91864 14.9365 10.5868 18.0021 13.6448 19.7455L8.04783 29.8762C7.78245 30.3553 7.77552 30.8983 8.0292 31.3287C8.27689 31.749 8.72983 32 9.24033 32H12.0716C12.7148 32 13.2163 31.6891 13.4568 31.1445L18.7046 20.88H19.0876V30.7207C19.0876 31.4142 19.6728 32 20.3655 32H22.8389C23.6157 32 24.158 31.4576 24.158 30.681V1.40019C24.1581 0.575813 23.5665 0 22.7192 0ZM19.0876 16.3204H18.412C15.7923 16.3204 14.2284 14.182 14.2284 10.6002C14.2284 6.1465 16.204 4.55969 18.053 4.55969H19.0876V16.3204Z" fill="#D7143A"/>
</svg>
